<svg xmlns="http://www.w3.org/2000/svg" viewBox="50 -6 185 265" class="w-full h-full drop-shadow-2xl"><g transform="rotate(-15, 140, 150)"><g class="signal-waves"><path d="M 181.03670474657963 40.12938026488065 A 34 34 0 0 1 217.87061973511936 76.96329525342038" fill="none" stroke="#111" stroke-width="24" stroke-linecap="round"/><path d="M 181.03670474657963 40.12938026488065 A 34 34 0 0 1 217.87061973511936 76.96329525342038" fill="none" stroke="#FFCC00" stroke-width="8" stroke-linecap="round"/><path d="M 178.94496692063584 16.220707510678757 A 58 58 0 0 1 241.77929248932125 79.05503307936418" fill="none" stroke="#111" stroke-width="24" stroke-linecap="round"/><path d="M 178.94496692063584 16.220707510678757 A 58 58 0 0 1 241.77929248932125 79.05503307936418" fill="none" stroke="#FFCC00" stroke-width="8" stroke-linecap="round"/></g><rect x="74" y="52" width="132" height="196" rx="22" fill="#111"/><rect x="86" y="64" width="108" height="172" rx="10" fill="#FFCC00"/><rect x="98" y="76" width="84" height="120" rx="4" fill="#111"/><g transform="translate(140 216) scale(1.2) translate(-140 -216)"><rect x="133" y="209" width="14" height="14" rx="3" fill="#111"/></g><g transform="translate(140 136) scale(1.05) translate(-140 -136)"><path d="M 140 123 C 126 108, 106 118, 110 138 C 113 152, 128 162, 137 167 C 139 168.5, 141 168.5, 143 167 C 152 162, 167 152, 170 138 C 174 118, 154 108, 140 123 Z" fill="#FFCC00"/></g></g></svg>